<?xml version="1.0" encoding="UTF-8" standalone="no"?>
<svg xmlns="http://www.w3.org/2000/svg" xmlns:xlink="http://www.w3.org/1999/xlink"  version="1.2" baseProfile="tiny" viewBox ="0 0 640.000000 480.000000">
<title>pyqtgraph SVG export</title>
<desc>Generated with Qt and pyqtgraph</desc>
<style>
    image {
        image-rendering: crisp-edges;
        image-rendering: -moz-crisp-edges;
        image-rendering: pixelated;
    }
</style>
<rect width="100%" height="100%" style="fill:rgb(255, 255, 255)" />
<defs>
</defs>
<g id="GraphicsScene_1">
    <g fill="none" stroke="black" stroke-width="1" fill-rule="evenodd" stroke-linecap="square" stroke-linejoin="bevel" id="myGraphicsLayout_1">
        <g fill="none" stroke="black" stroke-width="1" fill-rule="evenodd" stroke-linecap="square" stroke-linejoin="bevel" id="PlotItem_1">
            <g fill="none" stroke="black" stroke-width="1" fill-rule="evenodd" stroke-linecap="square" stroke-linejoin="bevel" id="ViewBox_1">
                <g fill="none" stroke="none" font-family="Ubuntu" font-size="14.6667" font-weight="400" font-style="normal">
                    <path fill-rule="evenodd" d="M66.6,10.0 L630.0,10.0 L630.0,428.4 L66.6,428.4 L66.6,10.0 "/>
                </g>
                <clipPath id="ViewBox_1_clip">
                    <path vector-effect="none" fill-rule="evenodd" d="M66.6,10.0 L630.0,10.0 L630.0,428.4 L66.6,428.4 L66.6,10.0 " stroke-width="1.0"/>
                </clipPath>
                <g clip-path="url(#ViewBox_1_clip)">
                    <g fill="none" stroke="black" stroke-width="1" fill-rule="evenodd" stroke-linecap="square" stroke-linejoin="bevel" id="ChildGroup_1">
                        <g id="PlotDataItem_1">
                            <g fill="none" stroke="black" stroke-width="1" fill-rule="evenodd" stroke-linecap="square" stroke-linejoin="bevel" id="PlotCurveItem_1">
                                <g fill="none" stroke="none" font-family="Ubuntu" font-size="14.6667" font-weight="400" font-style="normal">
                                    <path fill-rule="evenodd" d="M348.3,219.2 L348.3,219.2 L348.3,219.2 L348.3,219.2 L348.3,219.2 L348.3,219.2 L348.3,219.2 L348.3,219.2 L348.3,219.2 L348.3,219.2 L348.3,219.2 L348.3,219.2 L348.3,219.2 L348.3,219.2 L348.3,219.2 L348.3,219.2 L348.3,219.2 L348.3,219.2 L348.3,219.2 L348.3,219.2 L348.3,219.2 L348.3,219.2 L348.3,219.2 L348.3,219.2 L348.3,219.2 L348.3,219.2 L348.3,219.2 L348.3,219.2 L348.3,219.2 L348.3,219.2 L348.3,219.2 L348.3,219.2 L348.3,219.2 L348.3,219.2 L348.3,219.2 L348.3,219.2 L348.3,219.2 L348.3,219.2 L348.3,219.2 L348.3,219.2 L348.3,219.2 L348.3,219.2 L348.3,219.2 L348.3,219.2 L348.3,219.2 L348.3,219.2 L348.3,219.2 L348.3,219.2 L348.3,219.2 L348.3,219.2 L348.3,219.2 "/>
                                </g>
                            </g>
                            <g fill="none" stroke="black" stroke-width="1" fill-rule="evenodd" stroke-linecap="square" stroke-linejoin="bevel" id="ScatterPlotItem_1">
                                <g fill="#377eb8" fill-opacity="1" stroke="#1f4666" stroke-opacity="1" stroke-width="1" stroke-linecap="square" stroke-linejoin="bevel" font-family="Ubuntu" font-size="14.6667" font-weight="400" font-style="normal">
                                    <path fill-rule="evenodd" d="M352.3,219.2 C352.3,221.409136 350.509136,223.2 348.3,223.2 C346.090864,223.2 344.3,221.409136 344.3,219.2 C344.3,216.990864 346.090864,215.2 348.3,215.2 C350.509136,215.2 352.3,216.990864 352.3,219.2 "/>
                                </g>
                                <g fill="#377eb8" fill-opacity="1" stroke="#1f4666" stroke-opacity="1" stroke-width="1" stroke-linecap="square" stroke-linejoin="bevel" font-family="Ubuntu" font-size="14.6667" font-weight="400" font-style="normal">
                                    <path fill-rule="evenodd" d="M352.3,219.2 C352.3,221.409136 350.509136,223.2 348.3,223.2 C346.090864,223.2 344.3,221.409136 344.3,219.2 C344.3,216.990864 346.090864,215.2 348.3,215.2 C350.509136,215.2 352.3,216.990864 352.3,219.2 "/>
                                </g>
                                <g fill="#377eb8" fill-opacity="1" stroke="#1f4666" stroke-opacity="1" stroke-width="1" stroke-linecap="square" stroke-linejoin="bevel" font-family="Ubuntu" font-size="14.6667" font-weight="400" font-style="normal">
                                    <path fill-rule="evenodd" d="M352.3,219.2 C352.3,221.409136 350.509136,223.2 348.3,223.2 C346.090864,223.2 344.3,221.409136 344.3,219.2 C344.3,216.990864 346.090864,215.2 348.3,215.2 C350.509136,215.2 352.3,216.990864 352.3,219.2 "/>
                                </g>
                                <g fill="#377eb8" fill-opacity="1" stroke="#1f4666" stroke-opacity="1" stroke-width="1" stroke-linecap="square" stroke-linejoin="bevel" font-family="Ubuntu" font-size="14.6667" font-weight="400" font-style="normal">
                                    <path fill-rule="evenodd" d="M352.3,219.2 C352.3,221.409136 350.509136,223.2 348.3,223.2 C346.090864,223.2 344.3,221.409136 344.3,219.2 C344.3,216.990864 346.090864,215.2 348.3,215.2 C350.509136,215.2 352.3,216.990864 352.3,219.2 "/>
                                </g>
                                <g fill="#377eb8" fill-opacity="1" stroke="#1f4666" stroke-opacity="1" stroke-width="1" stroke-linecap="square" stroke-linejoin="bevel" font-family="Ubuntu" font-size="14.6667" font-weight="400" font-style="normal">
                                    <path fill-rule="evenodd" d="M352.3,219.2 C352.3,221.409136 350.509136,223.2 348.3,223.2 C346.090864,223.2 344.3,221.409136 344.3,219.2 C344.3,216.990864 346.090864,215.2 348.3,215.2 C350.509136,215.2 352.3,216.990864 352.3,219.2 "/>
                                </g>
                                <g fill="#377eb8" fill-opacity="1" stroke="#1f4666" stroke-opacity="1" stroke-width="1" stroke-linecap="square" stroke-linejoin="bevel" font-family="Ubuntu" font-size="14.6667" font-weight="400" font-style="normal">
                                    <path fill-rule="evenodd" d="M352.3,219.2 C352.3,221.409136 350.509136,223.2 348.3,223.2 C346.090864,223.2 344.3,221.409136 344.3,219.2 C344.3,216.990864 346.090864,215.2 348.3,215.2 C350.509136,215.2 352.3,216.990864 352.3,219.2 "/>
                                </g>
                                <g fill="#377eb8" fill-opacity="1" stroke="#1f4666" stroke-opacity="1" stroke-width="1" stroke-linecap="square" stroke-linejoin="bevel" font-family="Ubuntu" font-size="14.6667" font-weight="400" font-style="normal">
                                    <path fill-rule="evenodd" d="M352.3,219.2 C352.3,221.409136 350.509136,223.2 348.3,223.2 C346.090864,223.2 344.3,221.409136 344.3,219.2 C344.3,216.990864 346.090864,215.2 348.3,215.2 C350.509136,215.2 352.3,216.990864 352.3,219.2 "/>
                                </g>
                                <g fill="#377eb8" fill-opacity="1" stroke="#1f4666" stroke-opacity="1" stroke-width="1" stroke-linecap="square" stroke-linejoin="bevel" font-family="Ubuntu" font-size="14.6667" font-weight="400" font-style="normal">
                                    <path fill-rule="evenodd" d="M352.3,219.2 C352.3,221.409136 350.509136,223.2 348.3,223.2 C346.090864,223.2 344.3,221.409136 344.3,219.2 C344.3,216.990864 346.090864,215.2 348.3,215.2 C350.509136,215.2 352.3,216.990864 352.3,219.2 "/>
                                </g>
                                <g fill="#377eb8" fill-opacity="1" stroke="#1f4666" stroke-opacity="1" stroke-width="1" stroke-linecap="square" stroke-linejoin="bevel" font-family="Ubuntu" font-size="14.6667" font-weight="400" font-style="normal">
                                    <path fill-rule="evenodd" d="M352.3,219.2 C352.3,221.409136 350.509136,223.2 348.3,223.2 C346.090864,223.2 344.3,221.409136 344.3,219.2 C344.3,216.990864 346.090864,215.2 348.3,215.2 C350.509136,215.2 352.3,216.990864 352.3,219.2 "/>
                                </g>
                                <g fill="#377eb8" fill-opacity="1" stroke="#1f4666" stroke-opacity="1" stroke-width="1" stroke-linecap="square" stroke-linejoin="bevel" font-family="Ubuntu" font-size="14.6667" font-weight="400" font-style="normal">
                                    <path fill-rule="evenodd" d="M352.3,219.2 C352.3,221.409136 350.509136,223.2 348.3,223.2 C346.090864,223.2 344.3,221.409136 344.3,219.2 C344.3,216.990864 346.090864,215.2 348.3,215.2 C350.509136,215.2 352.3,216.990864 352.3,219.2 "/>
                                </g>
                                <g fill="#377eb8" fill-opacity="1" stroke="#1f4666" stroke-opacity="1" stroke-width="1" stroke-linecap="square" stroke-linejoin="bevel" font-family="Ubuntu" font-size="14.6667" font-weight="400" font-style="normal">
                                    <path fill-rule="evenodd" d="M352.3,219.2 C352.3,221.409136 350.509136,223.2 348.3,223.2 C346.090864,223.2 344.3,221.409136 344.3,219.2 C344.3,216.990864 346.090864,215.2 348.3,215.2 C350.509136,215.2 352.3,216.990864 352.3,219.2 "/>
                                </g>
                                <g fill="#377eb8" fill-opacity="1" stroke="#1f4666" stroke-opacity="1" stroke-width="1" stroke-linecap="square" stroke-linejoin="bevel" font-family="Ubuntu" font-size="14.6667" font-weight="400" font-style="normal">
                                    <path fill-rule="evenodd" d="M352.3,219.2 C352.3,221.409136 350.509136,223.2 348.3,223.2 C346.090864,223.2 344.3,221.409136 344.3,219.2 C344.3,216.990864 346.090864,215.2 348.3,215.2 C350.509136,215.2 352.3,216.990864 352.3,219.2 "/>
                                </g>
                                <g fill="#377eb8" fill-opacity="1" stroke="#1f4666" stroke-opacity="1" stroke-width="1" stroke-linecap="square" stroke-linejoin="bevel" font-family="Ubuntu" font-size="14.6667" font-weight="400" font-style="normal">
                                    <path fill-rule="evenodd" d="M352.3,219.2 C352.3,221.409136 350.509136,223.2 348.3,223.2 C346.090864,223.2 344.3,221.409136 344.3,219.2 C344.3,216.990864 346.090864,215.2 348.3,215.2 C350.509136,215.2 352.3,216.990864 352.3,219.2 "/>
                                </g>
                                <g fill="#377eb8" fill-opacity="1" stroke="#1f4666" stroke-opacity="1" stroke-width="1" stroke-linecap="square" stroke-linejoin="bevel" font-family="Ubuntu" font-size="14.6667" font-weight="400" font-style="normal">
                                    <path fill-rule="evenodd" d="M352.3,219.2 C352.3,221.409136 350.509136,223.2 348.3,223.2 C346.090864,223.2 344.3,221.409136 344.3,219.2 C344.3,216.990864 346.090864,215.2 348.3,215.2 C350.509136,215.2 352.3,216.990864 352.3,219.2 "/>
                                </g>
                                <g fill="#377eb8" fill-opacity="1" stroke="#1f4666" stroke-opacity="1" stroke-width="1" stroke-linecap="square" stroke-linejoin="bevel" font-family="Ubuntu" font-size="14.6667" font-weight="400" font-style="normal">
                                    <path fill-rule="evenodd" d="M352.3,219.2 C352.3,221.409136 350.509136,223.2 348.3,223.2 C346.090864,223.2 344.3,221.409136 344.3,219.2 C344.3,216.990864 346.090864,215.2 348.3,215.2 C350.509136,215.2 352.3,216.990864 352.3,219.2 "/>
                                </g>
                                <g fill="#377eb8" fill-opacity="1" stroke="#1f4666" stroke-opacity="1" stroke-width="1" stroke-linecap="square" stroke-linejoin="bevel" font-family="Ubuntu" font-size="14.6667" font-weight="400" font-style="normal">
                                    <path fill-rule="evenodd" d="M352.3,219.2 C352.3,221.409136 350.509136,223.2 348.3,223.2 C346.090864,223.2 344.3,221.409136 344.3,219.2 C344.3,216.990864 346.090864,215.2 348.3,215.2 C350.509136,215.2 352.3,216.990864 352.3,219.2 "/>
                                </g>
                                <g fill="#377eb8" fill-opacity="1" stroke="#1f4666" stroke-opacity="1" stroke-width="1" stroke-linecap="square" stroke-linejoin="bevel" font-family="Ubuntu" font-size="14.6667" font-weight="400" font-style="normal">
                                    <path fill-rule="evenodd" d="M352.3,219.2 C352.3,221.409136 350.509136,223.2 348.3,223.2 C346.090864,223.2 344.3,221.409136 344.3,219.2 C344.3,216.990864 346.090864,215.2 348.3,215.2 C350.509136,215.2 352.3,216.990864 352.3,219.2 "/>
                                </g>
                                <g fill="#377eb8" fill-opacity="1" stroke="#1f4666" stroke-opacity="1" stroke-width="1" stroke-linecap="square" stroke-linejoin="bevel" font-family="Ubuntu" font-size="14.6667" font-weight="400" font-style="normal">
                                    <path fill-rule="evenodd" d="M352.3,219.2 C352.3,221.409136 350.509136,223.2 348.3,223.2 C346.090864,223.2 344.3,221.409136 344.3,219.2 C344.3,216.990864 346.090864,215.2 348.3,215.2 C350.509136,215.2 352.3,216.990864 352.3,219.2 "/>
                                </g>
                                <g fill="#377eb8" fill-opacity="1" stroke="#1f4666" stroke-opacity="1" stroke-width="1" stroke-linecap="square" stroke-linejoin="bevel" font-family="Ubuntu" font-size="14.6667" font-weight="400" font-style="normal">
                                    <path fill-rule="evenodd" d="M352.3,219.2 C352.3,221.409136 350.509136,223.2 348.3,223.2 C346.090864,223.2 344.3,221.409136 344.3,219.2 C344.3,216.990864 346.090864,215.2 348.3,215.2 C350.509136,215.2 352.3,216.990864 352.3,219.2 "/>
                                </g>
                                <g fill="#377eb8" fill-opacity="1" stroke="#1f4666" stroke-opacity="1" stroke-width="1" stroke-linecap="square" stroke-linejoin="bevel" font-family="Ubuntu" font-size="14.6667" font-weight="400" font-style="normal">
                                    <path fill-rule="evenodd" d="M352.3,219.2 C352.3,221.409136 350.509136,223.2 348.3,223.2 C346.090864,223.2 344.3,221.409136 344.3,219.2 C344.3,216.990864 346.090864,215.2 348.3,215.2 C350.509136,215.2 352.3,216.990864 352.3,219.2 "/>
                                </g>
                                <g fill="#377eb8" fill-opacity="1" stroke="#1f4666" stroke-opacity="1" stroke-width="1" stroke-linecap="square" stroke-linejoin="bevel" font-family="Ubuntu" font-size="14.6667" font-weight="400" font-style="normal">
                                    <path fill-rule="evenodd" d="M352.3,219.2 C352.3,221.409136 350.509136,223.2 348.3,223.2 C346.090864,223.2 344.3,221.409136 344.3,219.2 C344.3,216.990864 346.090864,215.2 348.3,215.2 C350.509136,215.2 352.3,216.990864 352.3,219.2 "/>
                                </g>
                                <g fill="#377eb8" fill-opacity="1" stroke="#1f4666" stroke-opacity="1" stroke-width="1" stroke-linecap="square" stroke-linejoin="bevel" font-family="Ubuntu" font-size="14.6667" font-weight="400" font-style="normal">
                                    <path fill-rule="evenodd" d="M352.3,219.2 C352.3,221.409136 350.509136,223.2 348.3,223.2 C346.090864,223.2 344.3,221.409136 344.3,219.2 C344.3,216.990864 346.090864,215.2 348.3,215.2 C350.509136,215.2 352.3,216.990864 352.3,219.2 "/>
                                </g>
                                <g fill="#377eb8" fill-opacity="1" stroke="#1f4666" stroke-opacity="1" stroke-width="1" stroke-linecap="square" stroke-linejoin="bevel" font-family="Ubuntu" font-size="14.6667" font-weight="400" font-style="normal">
                                    <path fill-rule="evenodd" d="M352.3,219.2 C352.3,221.409136 350.509136,223.2 348.3,223.2 C346.090864,223.2 344.3,221.409136 344.3,219.2 C344.3,216.990864 346.090864,215.2 348.3,215.2 C350.509136,215.2 352.3,216.990864 352.3,219.2 "/>
                                </g>
                                <g fill="#377eb8" fill-opacity="1" stroke="#1f4666" stroke-opacity="1" stroke-width="1" stroke-linecap="square" stroke-linejoin="bevel" font-family="Ubuntu" font-size="14.6667" font-weight="400" font-style="normal">
                                    <path fill-rule="evenodd" d="M352.3,219.2 C352.3,221.409136 350.509136,223.2 348.3,223.2 C346.090864,223.2 344.3,221.409136 344.3,219.2 C344.3,216.990864 346.090864,215.2 348.3,215.2 C350.509136,215.2 352.3,216.990864 352.3,219.2 "/>
                                </g>
                                <g fill="#377eb8" fill-opacity="1" stroke="#1f4666" stroke-opacity="1" stroke-width="1" stroke-linecap="square" stroke-linejoin="bevel" font-family="Ubuntu" font-size="14.6667" font-weight="400" font-style="normal">
                                    <path fill-rule="evenodd" d="M352.3,219.2 C352.3,221.409136 350.509136,223.2 348.3,223.2 C346.090864,223.2 344.3,221.409136 344.3,219.2 C344.3,216.990864 346.090864,215.2 348.3,215.2 C350.509136,215.2 352.3,216.990864 352.3,219.2 "/>
                                </g>
                                <g fill="#377eb8" fill-opacity="1" stroke="#1f4666" stroke-opacity="1" stroke-width="1" stroke-linecap="square" stroke-linejoin="bevel" font-family="Ubuntu" font-size="14.6667" font-weight="400" font-style="normal">
                                    <path fill-rule="evenodd" d="M352.3,219.2 C352.3,221.409136 350.509136,223.2 348.3,223.2 C346.090864,223.2 344.3,221.409136 344.3,219.2 C344.3,216.990864 346.090864,215.2 348.3,215.2 C350.509136,215.2 352.3,216.990864 352.3,219.2 "/>
                                </g>
                                <g fill="#377eb8" fill-opacity="1" stroke="#1f4666" stroke-opacity="1" stroke-width="1" stroke-linecap="square" stroke-linejoin="bevel" font-family="Ubuntu" font-size="14.6667" font-weight="400" font-style="normal">
                                    <path fill-rule="evenodd" d="M352.3,219.2 C352.3,221.409136 350.509136,223.2 348.3,223.2 C346.090864,223.2 344.3,221.409136 344.3,219.2 C344.3,216.990864 346.090864,215.2 348.3,215.2 C350.509136,215.2 352.3,216.990864 352.3,219.2 "/>
                                </g>
                                <g fill="#377eb8" fill-opacity="1" stroke="#1f4666" stroke-opacity="1" stroke-width="1" stroke-linecap="square" stroke-linejoin="bevel" font-family="Ubuntu" font-size="14.6667" font-weight="400" font-style="normal">
                                    <path fill-rule="evenodd" d="M352.3,219.2 C352.3,221.409136 350.509136,223.2 348.3,223.2 C346.090864,223.2 344.3,221.409136 344.3,219.2 C344.3,216.990864 346.090864,215.2 348.3,215.2 C350.509136,215.2 352.3,216.990864 352.3,219.2 "/>
                                </g>
                                <g fill="#377eb8" fill-opacity="1" stroke="#1f4666" stroke-opacity="1" stroke-width="1" stroke-linecap="square" stroke-linejoin="bevel" font-family="Ubuntu" font-size="14.6667" font-weight="400" font-style="normal">
                                    <path fill-rule="evenodd" d="M352.3,219.2 C352.3,221.409136 350.509136,223.2 348.3,223.2 C346.090864,223.2 344.3,221.409136 344.3,219.2 C344.3,216.990864 346.090864,215.2 348.3,215.2 C350.509136,215.2 352.3,216.990864 352.3,219.2 "/>
                                </g>
                                <g fill="#377eb8" fill-opacity="1" stroke="#1f4666" stroke-opacity="1" stroke-width="1" stroke-linecap="square" stroke-linejoin="bevel" font-family="Ubuntu" font-size="14.6667" font-weight="400" font-style="normal">
                                    <path fill-rule="evenodd" d="M352.3,219.2 C352.3,221.409136 350.509136,223.2 348.3,223.2 C346.090864,223.2 344.3,221.409136 344.3,219.2 C344.3,216.990864 346.090864,215.2 348.3,215.2 C350.509136,215.2 352.3,216.990864 352.3,219.2 "/>
                                </g>
                                <g fill="#377eb8" fill-opacity="1" stroke="#1f4666" stroke-opacity="1" stroke-width="1" stroke-linecap="square" stroke-linejoin="bevel" font-family="Ubuntu" font-size="14.6667" font-weight="400" font-style="normal">
                                    <path fill-rule="evenodd" d="M352.3,219.2 C352.3,221.409136 350.509136,223.2 348.3,223.2 C346.090864,223.2 344.3,221.409136 344.3,219.2 C344.3,216.990864 346.090864,215.2 348.3,215.2 C350.509136,215.2 352.3,216.990864 352.3,219.2 "/>
                                </g>
                                <g fill="#377eb8" fill-opacity="1" stroke="#1f4666" stroke-opacity="1" stroke-width="1" stroke-linecap="square" stroke-linejoin="bevel" font-family="Ubuntu" font-size="14.6667" font-weight="400" font-style="normal">
                                    <path fill-rule="evenodd" d="M352.3,219.2 C352.3,221.409136 350.509136,223.2 348.3,223.2 C346.090864,223.2 344.3,221.409136 344.3,219.2 C344.3,216.990864 346.090864,215.2 348.3,215.2 C350.509136,215.2 352.3,216.990864 352.3,219.2 "/>
                                </g>
                                <g fill="#377eb8" fill-opacity="1" stroke="#1f4666" stroke-opacity="1" stroke-width="1" stroke-linecap="square" stroke-linejoin="bevel" font-family="Ubuntu" font-size="14.6667" font-weight="400" font-style="normal">
                                    <path fill-rule="evenodd" d="M352.3,219.2 C352.3,221.409136 350.509136,223.2 348.3,223.2 C346.090864,223.2 344.3,221.409136 344.3,219.2 C344.3,216.990864 346.090864,215.2 348.3,215.2 C350.509136,215.2 352.3,216.990864 352.3,219.2 "/>
                                </g>
                                <g fill="#377eb8" fill-opacity="1" stroke="#1f4666" stroke-opacity="1" stroke-width="1" stroke-linecap="square" stroke-linejoin="bevel" font-family="Ubuntu" font-size="14.6667" font-weight="400" font-style="normal">
                                    <path fill-rule="evenodd" d="M352.3,219.2 C352.3,221.409136 350.509136,223.2 348.3,223.2 C346.090864,223.2 344.3,221.409136 344.3,219.2 C344.3,216.990864 346.090864,215.2 348.3,215.2 C350.509136,215.2 352.3,216.990864 352.3,219.2 "/>
                                </g>
                                <g fill="#377eb8" fill-opacity="1" stroke="#1f4666" stroke-opacity="1" stroke-width="1" stroke-linecap="square" stroke-linejoin="bevel" font-family="Ubuntu" font-size="14.6667" font-weight="400" font-style="normal">
                                    <path fill-rule="evenodd" d="M352.3,219.2 C352.3,221.409136 350.509136,223.2 348.3,223.2 C346.090864,223.2 344.3,221.409136 344.3,219.2 C344.3,216.990864 346.090864,215.2 348.3,215.2 C350.509136,215.2 352.3,216.990864 352.3,219.2 "/>
                                </g>
                                <g fill="#377eb8" fill-opacity="1" stroke="#1f4666" stroke-opacity="1" stroke-width="1" stroke-linecap="square" stroke-linejoin="bevel" font-family="Ubuntu" font-size="14.6667" font-weight="400" font-style="normal">
                                    <path fill-rule="evenodd" d="M352.3,219.2 C352.3,221.409136 350.509136,223.2 348.3,223.2 C346.090864,223.2 344.3,221.409136 344.3,219.2 C344.3,216.990864 346.090864,215.2 348.3,215.2 C350.509136,215.2 352.3,216.990864 352.3,219.2 "/>
                                </g>
                                <g fill="#377eb8" fill-opacity="1" stroke="#1f4666" stroke-opacity="1" stroke-width="1" stroke-linecap="square" stroke-linejoin="bevel" font-family="Ubuntu" font-size="14.6667" font-weight="400" font-style="normal">
                                    <path fill-rule="evenodd" d="M352.3,219.2 C352.3,221.409136 350.509136,223.2 348.3,223.2 C346.090864,223.2 344.3,221.409136 344.3,219.2 C344.3,216.990864 346.090864,215.2 348.3,215.2 C350.509136,215.2 352.3,216.990864 352.3,219.2 "/>
                                </g>
                                <g fill="#377eb8" fill-opacity="1" stroke="#1f4666" stroke-opacity="1" stroke-width="1" stroke-linecap="square" stroke-linejoin="bevel" font-family="Ubuntu" font-size="14.6667" font-weight="400" font-style="normal">
                                    <path fill-rule="evenodd" d="M352.3,219.2 C352.3,221.409136 350.509136,223.2 348.3,223.2 C346.090864,223.2 344.3,221.409136 344.3,219.2 C344.3,216.990864 346.090864,215.2 348.3,215.2 C350.509136,215.2 352.3,216.990864 352.3,219.2 "/>
                                </g>
                                <g fill="#377eb8" fill-opacity="1" stroke="#1f4666" stroke-opacity="1" stroke-width="1" stroke-linecap="square" stroke-linejoin="bevel" font-family="Ubuntu" font-size="14.6667" font-weight="400" font-style="normal">
                                    <path fill-rule="evenodd" d="M352.3,219.2 C352.3,221.409136 350.509136,223.2 348.3,223.2 C346.090864,223.2 344.3,221.409136 344.3,219.2 C344.3,216.990864 346.090864,215.2 348.3,215.2 C350.509136,215.2 352.3,216.990864 352.3,219.2 "/>
                                </g>
                                <g fill="#377eb8" fill-opacity="1" stroke="#1f4666" stroke-opacity="1" stroke-width="1" stroke-linecap="square" stroke-linejoin="bevel" font-family="Ubuntu" font-size="14.6667" font-weight="400" font-style="normal">
                                    <path fill-rule="evenodd" d="M352.3,219.2 C352.3,221.409136 350.509136,223.2 348.3,223.2 C346.090864,223.2 344.3,221.409136 344.3,219.2 C344.3,216.990864 346.090864,215.2 348.3,215.2 C350.509136,215.2 352.3,216.990864 352.3,219.2 "/>
                                </g>
                                <g fill="#377eb8" fill-opacity="1" stroke="#1f4666" stroke-opacity="1" stroke-width="1" stroke-linecap="square" stroke-linejoin="bevel" font-family="Ubuntu" font-size="14.6667" font-weight="400" font-style="normal">
                                    <path fill-rule="evenodd" d="M352.3,219.2 C352.3,221.409136 350.509136,223.2 348.3,223.2 C346.090864,223.2 344.3,221.409136 344.3,219.2 C344.3,216.990864 346.090864,215.2 348.3,215.2 C350.509136,215.2 352.3,216.990864 352.3,219.2 "/>
                                </g>
                                <g fill="#377eb8" fill-opacity="1" stroke="#1f4666" stroke-opacity="1" stroke-width="1" stroke-linecap="square" stroke-linejoin="bevel" font-family="Ubuntu" font-size="14.6667" font-weight="400" font-style="normal">
                                    <path fill-rule="evenodd" d="M352.3,219.2 C352.3,221.409136 350.509136,223.2 348.3,223.2 C346.090864,223.2 344.3,221.409136 344.3,219.2 C344.3,216.990864 346.090864,215.2 348.3,215.2 C350.509136,215.2 352.3,216.990864 352.3,219.2 "/>
                                </g>
                                <g fill="#377eb8" fill-opacity="1" stroke="#1f4666" stroke-opacity="1" stroke-width="1" stroke-linecap="square" stroke-linejoin="bevel" font-family="Ubuntu" font-size="14.6667" font-weight="400" font-style="normal">
                                    <path fill-rule="evenodd" d="M352.3,219.2 C352.3,221.409136 350.509136,223.2 348.3,223.2 C346.090864,223.2 344.3,221.409136 344.3,219.2 C344.3,216.990864 346.090864,215.2 348.3,215.2 C350.509136,215.2 352.3,216.990864 352.3,219.2 "/>
                                </g>
                                <g fill="#377eb8" fill-opacity="1" stroke="#1f4666" stroke-opacity="1" stroke-width="1" stroke-linecap="square" stroke-linejoin="bevel" font-family="Ubuntu" font-size="14.6667" font-weight="400" font-style="normal">
                                    <path fill-rule="evenodd" d="M352.3,219.2 C352.3,221.409136 350.509136,223.2 348.3,223.2 C346.090864,223.2 344.3,221.409136 344.3,219.2 C344.3,216.990864 346.090864,215.2 348.3,215.2 C350.509136,215.2 352.3,216.990864 352.3,219.2 "/>
                                </g>
                                <g fill="#377eb8" fill-opacity="1" stroke="#1f4666" stroke-opacity="1" stroke-width="1" stroke-linecap="square" stroke-linejoin="bevel" font-family="Ubuntu" font-size="14.6667" font-weight="400" font-style="normal">
                                    <path fill-rule="evenodd" d="M352.3,219.2 C352.3,221.409136 350.509136,223.2 348.3,223.2 C346.090864,223.2 344.3,221.409136 344.3,219.2 C344.3,216.990864 346.090864,215.2 348.3,215.2 C350.509136,215.2 352.3,216.990864 352.3,219.2 "/>
                                </g>
                                <g fill="#377eb8" fill-opacity="1" stroke="#1f4666" stroke-opacity="1" stroke-width="1" stroke-linecap="square" stroke-linejoin="bevel" font-family="Ubuntu" font-size="14.6667" font-weight="400" font-style="normal">
                                    <path fill-rule="evenodd" d="M352.3,219.2 C352.3,221.409136 350.509136,223.2 348.3,223.2 C346.090864,223.2 344.3,221.409136 344.3,219.2 C344.3,216.990864 346.090864,215.2 348.3,215.2 C350.509136,215.2 352.3,216.990864 352.3,219.2 "/>
                                </g>
                                <g fill="#377eb8" fill-opacity="1" stroke="#1f4666" stroke-opacity="1" stroke-width="1" stroke-linecap="square" stroke-linejoin="bevel" font-family="Ubuntu" font-size="14.6667" font-weight="400" font-style="normal">
                                    <path fill-rule="evenodd" d="M352.3,219.2 C352.3,221.409136 350.509136,223.2 348.3,223.2 C346.090864,223.2 344.3,221.409136 344.3,219.2 C344.3,216.990864 346.090864,215.2 348.3,215.2 C350.509136,215.2 352.3,216.990864 352.3,219.2 "/>
                                </g>
                                <g fill="#377eb8" fill-opacity="1" stroke="#1f4666" stroke-opacity="1" stroke-width="1" stroke-linecap="square" stroke-linejoin="bevel" font-family="Ubuntu" font-size="14.6667" font-weight="400" font-style="normal">
                                    <path fill-rule="evenodd" d="M352.3,219.2 C352.3,221.409136 350.509136,223.2 348.3,223.2 C346.090864,223.2 344.3,221.409136 344.3,219.2 C344.3,216.990864 346.090864,215.2 348.3,215.2 C350.509136,215.2 352.3,216.990864 352.3,219.2 "/>
                                </g>
                                <g fill="#377eb8" fill-opacity="1" stroke="#1f4666" stroke-opacity="1" stroke-width="1" stroke-linecap="square" stroke-linejoin="bevel" font-family="Ubuntu" font-size="14.6667" font-weight="400" font-style="normal">
                                    <path fill-rule="evenodd" d="M352.3,219.2 C352.3,221.409136 350.509136,223.2 348.3,223.2 C346.090864,223.2 344.3,221.409136 344.3,219.2 C344.3,216.990864 346.090864,215.2 348.3,215.2 C350.509136,215.2 352.3,216.990864 352.3,219.2 "/>
                                </g>
                                <g fill="#377eb8" fill-opacity="1" stroke="#1f4666" stroke-opacity="1" stroke-width="1" stroke-linecap="square" stroke-linejoin="bevel" font-family="Ubuntu" font-size="14.6667" font-weight="400" font-style="normal">
                                    <path fill-rule="evenodd" d="M352.3,219.2 C352.3,221.409136 350.509136,223.2 348.3,223.2 C346.090864,223.2 344.3,221.409136 344.3,219.2 C344.3,216.990864 346.090864,215.2 348.3,215.2 C350.509136,215.2 352.3,216.990864 352.3,219.2 "/>
                                </g>
                                <g fill="#ffff00" fill-opacity="1" stroke="#1f4666" stroke-opacity="1" stroke-width="1" stroke-linecap="square" stroke-linejoin="bevel" font-family="Ubuntu" font-size="14.6667" font-weight="400" font-style="normal">
                                    <path fill-rule="evenodd" d="M352.3,219.2 C352.3,221.409136 350.509136,223.2 348.3,223.2 C346.090864,223.2 344.3,221.409136 344.3,219.2 C344.3,216.990864 346.090864,215.2 348.3,215.2 C350.509136,215.2 352.3,216.990864 352.3,219.2 "/>
                                </g>
                            </g>
                        </g>
                    </g>
                    <g fill="none" stroke="black" stroke-width="1" fill-rule="evenodd" stroke-linecap="square" stroke-linejoin="bevel" id="QGraphicsRectItem_1">
                        


                        <g fill="none" stroke="none" transform="matrix(1,0,0,1,66.6,10)" font-family="Ubuntu" font-size="14.6667" font-weight="400" font-style="normal">
                            

                            <rect x="0" y="0" width="563.4" height="418.4"/>
                            

                        </g>
                        

                    </g>
                </g>
            </g>
            <g fill="none" stroke="black" stroke-width="1" fill-rule="evenodd" stroke-linecap="square" stroke-linejoin="bevel" id="myAxis_1">
                <g fill="none" stroke="#323232" stroke-opacity="1" stroke-width="1" stroke-linecap="square" stroke-linejoin="bevel" font-family="Ubuntu" font-size="14.6667" font-weight="400" font-style="normal">
                    <polyline fill="none" points="66.6,428.4 630.0,428.4"/>
                </g>
                <g fill="none" stroke="#323232" stroke-opacity="0.501961" stroke-width="1" stroke-linecap="square" stroke-linejoin="bevel" font-family="Ubuntu" font-size="14.6667" font-weight="400" font-style="normal">
                    <polyline fill="none" points="348.29999999999995,10.0 348.29999999999995,428.4"/>
                </g>
                <g fill="none" stroke="#323232" stroke-opacity="0.25098" stroke-width="1" stroke-linecap="square" stroke-linejoin="bevel" font-family="Ubuntu" font-size="14.6667" font-weight="400" font-style="normal">
                    <polyline fill="none" points="122.94,10.0 122.94,428.4"/>
                    <polyline fill="none" points="235.62,10.0 235.62,428.4"/>
                    <polyline fill="none" points="460.98,10.0 460.98,428.4"/>
                    <polyline fill="none" points="573.66,10.0 573.66,428.4"/>
                </g>
                <g fill="none" stroke="#323232" stroke-opacity="0.164706" stroke-width="1" stroke-linecap="square" stroke-linejoin="bevel" font-family="Ubuntu" font-size="14.6667" font-weight="400" font-style="normal">
                    <polyline fill="none" points="66.6,10.0 66.6,428.4"/>
                    <polyline fill="none" points="179.28,10.0 179.28,428.4"/>
                    <polyline fill="none" points="291.96000000000004,10.0 291.96000000000004,428.4"/>
                    <polyline fill="none" points="404.64,10.0 404.64,428.4"/>
                    <polyline fill="none" points="517.32,10.0 517.32,428.4"/>
                    <polyline fill="none" points="630.0,10.0 630.0,428.4"/>
                </g>
                <g fill="none" stroke="#323232" stroke-opacity="1" stroke-width="1" stroke-linecap="square" stroke-linejoin="bevel" transform="matrix(1,0,0,1,66.6,428.4)" font-family="Ubuntu" font-size="14.6667" font-weight="400" font-style="normal">
                    <text fill="#323232" fill-opacity="1" stroke="none" xml:space="preserve" x="277.469" y="16" font-family="Ubuntu" font-size="14.6667" font-weight="400" font-style="normal">0</text>
                    <text fill="#323232" fill-opacity="1" stroke="none" xml:space="preserve" x="43.7969" y="16" font-family="Ubuntu" font-size="14.6667" font-weight="400" font-style="normal">-0.4</text>
                    <text fill="#323232" fill-opacity="1" stroke="none" xml:space="preserve" x="156.469" y="16" font-family="Ubuntu" font-size="14.6667" font-weight="400" font-style="normal">-0.2</text>
                    <text fill="#323232" fill-opacity="1" stroke="none" xml:space="preserve" x="384.078" y="16" font-family="Ubuntu" font-size="14.6667" font-weight="400" font-style="normal">0.2</text>
                    <text fill="#323232" fill-opacity="1" stroke="none" xml:space="preserve" x="496.75" y="16" font-family="Ubuntu" font-size="14.6667" font-weight="400" font-style="normal">0.4</text>
                </g>
                <g fill="none" stroke="black" stroke-width="1" fill-rule="evenodd" stroke-linecap="square" stroke-linejoin="bevel" id="QGraphicsTextItem_1">
                    


                    


                    


                    <g fill="none" stroke="#000000" stroke-opacity="1" stroke-width="1" stroke-linecap="square" stroke-linejoin="bevel" transform="matrix(1,0,0,1,243.6,447.4)" font-family="Ubuntu" font-size="14.6667" font-weight="400" font-style="normal">
                        <text fill="#000000" fill-opacity="1" stroke="none" xml:space="preserve" x="4" y="19" font-family="39" font-size="16" font-weight="400" font-style="normal">Objective (or constraint) </text>
                    </g>
                    


                    

                </g>
            </g>
            <g fill="none" stroke="black" stroke-width="1" fill-rule="evenodd" stroke-linecap="square" stroke-linejoin="bevel" id="myAxis_2">
                <g fill="none" stroke="#323232" stroke-opacity="1" stroke-width="1" stroke-linecap="square" stroke-linejoin="bevel" font-family="Ubuntu" font-size="14.6667" font-weight="400" font-style="normal">
                    <polyline fill="none" points="66.6,10.0 66.6,428.4"/>
                </g>
                <g fill="none" stroke="#323232" stroke-opacity="0.501961" stroke-width="1" stroke-linecap="square" stroke-linejoin="bevel" font-family="Ubuntu" font-size="14.6667" font-weight="400" font-style="normal">
                    <polyline fill="none" points="630.0,219.2 66.6,219.2"/>
                </g>
                <g fill="none" stroke="#323232" stroke-opacity="0.25098" stroke-width="1" stroke-linecap="square" stroke-linejoin="bevel" font-family="Ubuntu" font-size="14.6667" font-weight="400" font-style="normal">
                    <polyline fill="none" points="630.0,386.56 66.6,386.56"/>
                    <polyline fill="none" points="630.0,302.88 66.6,302.88"/>
                    <polyline fill="none" points="630.0,135.51999999999998 66.6,135.51999999999998"/>
                    <polyline fill="none" points="630.0,51.84 66.6,51.84"/>
                </g>
                <g fill="none" stroke="#323232" stroke-opacity="0.164706" stroke-width="1" stroke-linecap="square" stroke-linejoin="bevel" font-family="Ubuntu" font-size="14.6667" font-weight="400" font-style="normal">
                    <polyline fill="none" points="630.0,428.4 66.6,428.4"/>
                    <polyline fill="none" points="630.0,344.72 66.6,344.72"/>
                    <polyline fill="none" points="630.0,261.03999999999996 66.6,261.03999999999996"/>
                    <polyline fill="none" points="630.0,177.36 66.6,177.36"/>
                    <polyline fill="none" points="630.0,93.68 66.6,93.68"/>
                    <polyline fill="none" points="630.0,10.0 66.6,10.0"/>
                </g>
                <g fill="none" stroke="#323232" stroke-opacity="1" stroke-width="1" stroke-linecap="square" stroke-linejoin="bevel" transform="matrix(1,0,0,1,10,10)" font-family="Ubuntu" font-size="14.6667" font-weight="400" font-style="normal">
                    <text fill="#323232" fill-opacity="1" stroke="none" xml:space="preserve" x="43.1406" y="214.688" font-family="Ubuntu" font-size="14.6667" font-weight="400" font-style="normal">0</text>
                    <text fill="#323232" fill-opacity="1" stroke="none" xml:space="preserve" x="26.5156" y="382.047" font-family="Ubuntu" font-size="14.6667" font-weight="400" font-style="normal">-0.4</text>
                    <text fill="#323232" fill-opacity="1" stroke="none" xml:space="preserve" x="26.5156" y="298.375" font-family="Ubuntu" font-size="14.6667" font-weight="400" font-style="normal">-0.2</text>
                    <text fill="#323232" fill-opacity="1" stroke="none" xml:space="preserve" x="31" y="131.016" font-family="Ubuntu" font-size="14.6667" font-weight="400" font-style="normal">0.2</text>
                    <text fill="#323232" fill-opacity="1" stroke="none" xml:space="preserve" x="31" y="47.3281" font-family="Ubuntu" font-size="14.6667" font-weight="400" font-style="normal">0.4</text>
                    <text fill="#323232" fill-opacity="1" stroke="none" xml:space="preserve" x="26.5156" y="423.891" font-family="Ubuntu" font-size="14.6667" font-weight="400" font-style="normal">-0.5</text>
                    <text fill="#323232" fill-opacity="1" stroke="none" xml:space="preserve" x="26.5156" y="340.219" font-family="Ubuntu" font-size="14.6667" font-weight="400" font-style="normal">-0.3</text>
                    <text fill="#323232" fill-opacity="1" stroke="none" xml:space="preserve" x="26.5156" y="256.531" font-family="Ubuntu" font-size="14.6667" font-weight="400" font-style="normal">-0.1</text>
                    <text fill="#323232" fill-opacity="1" stroke="none" xml:space="preserve" x="31" y="172.859" font-family="Ubuntu" font-size="14.6667" font-weight="400" font-style="normal">0.1</text>
                    <text fill="#323232" fill-opacity="1" stroke="none" xml:space="preserve" x="31" y="89.1719" font-family="Ubuntu" font-size="14.6667" font-weight="400" font-style="normal">0.3</text>
                    <text fill="#323232" fill-opacity="1" stroke="none" xml:space="preserve" x="31" y="5.5" font-family="Ubuntu" font-size="14.6667" font-weight="400" font-style="normal">0.5</text>
                </g>
                <g fill="none" stroke="black" stroke-width="1" fill-rule="evenodd" stroke-linecap="square" stroke-linejoin="bevel" id="QGraphicsTextItem_2">
                    


                    


                    


                    <g fill="none" stroke="#000000" stroke-opacity="1" stroke-width="1" stroke-linecap="square" stroke-linejoin="bevel" transform="matrix(0,-1,1,0,0,323)" font-family="Ubuntu" font-size="14.6667" font-weight="400" font-style="normal">
                        <text fill="#000000" fill-opacity="1" stroke="none" xml:space="preserve" x="4" y="19" font-family="39" font-size="16" font-weight="400" font-style="normal">Objective (or constraint) </text>
                    </g>
                    


                    

                </g>
            </g>
        </g>
    </g>
</g>

</svg>
